<svg id="圖層_1" data-name="圖層 1" xmlns="http://www.w3.org/2000/svg" viewBox="0 0 41.02 40.21"><defs><style>.cls-1{fill:#ebebeb;}.cls-2{fill:#838383;fill-rule:evenodd;}</style></defs><g id="Group_82" data-name="Group 82"><g id="Group_63" data-name="Group 63"><path id="Path_262" data-name="Path 262" class="cls-1" d="M20.51,0A20.32,20.32,0,0,1,41,20.1a19.93,19.93,0,0,1-3.45,11.17,20.52,20.52,0,0,1-17.06,8.94A20.31,20.31,0,0,1,0,20.1,20.32,20.32,0,0,1,20.51,0Z"/></g><g id="Facebook"><path id="Path_1" data-name="Path 1" class="cls-2" d="M22,29.84V20.92h3.05l.43-3.48H22V15.26c0-1,.33-1.74,1.74-1.74h1.85V10.37c-.43,0-1.53-.11-2.72-.11a4.2,4.2,0,0,0-4.47,3.91,4.85,4.85,0,0,0,0,.66v2.61h-3v3.48h3v8.92Z"/></g></g></svg>