<svg id="圖層_1" data-name="圖層 1" xmlns="http://www.w3.org/2000/svg" viewBox="0 0 40 40"><defs><style>.cls-1{fill:#ebebeb;}.cls-2{fill:#838383;stroke:#838383;stroke-width:0.5px;fill-rule:evenodd;}</style></defs><g id="Group_84" data-name="Group 84"><path id="Path_262" data-name="Path 262" class="cls-1" d="M20,0A20,20,0,1,1,0,20,20,20,0,0,1,20,0Z"/><g id="Instagram"><path id="Path_3" data-name="Path 3" class="cls-2" d="M20.7,11.72a31.43,31.43,0,0,1,3.88.11,5,5,0,0,1,1.83.32A3.76,3.76,0,0,1,28.24,14a5.16,5.16,0,0,1,.33,1.83c0,1,.1,1.29.1,3.88a29.58,29.58,0,0,1-.1,3.88,5.24,5.24,0,0,1-.33,1.83,3.74,3.74,0,0,1-1.83,1.83,5,5,0,0,1-1.83.32c-1,0-1.29.11-3.88.11a29.59,29.59,0,0,1-3.88-.11A5,5,0,0,1,15,27.24a3.74,3.74,0,0,1-1.83-1.83,5.24,5.24,0,0,1-.33-1.83c0-1-.1-1.3-.1-3.88a29.53,29.53,0,0,1,.1-3.88A5.16,5.16,0,0,1,13.16,14a3.67,3.67,0,0,1,.75-1.08A1.77,1.77,0,0,1,15,12.16a4.78,4.78,0,0,1,1.83-.33,31.43,31.43,0,0,1,3.88-.11m0-1.72a31.28,31.28,0,0,0-4,.11,6.63,6.63,0,0,0-2.37.43,4.09,4.09,0,0,0-1.72,1.08,4.09,4.09,0,0,0-1.08,1.72,4.84,4.84,0,0,0-.43,2.37,31.28,31.28,0,0,0-.11,4,31.28,31.28,0,0,0,.11,4,6.63,6.63,0,0,0,.43,2.37,4.16,4.16,0,0,0,1.08,1.72,4.3,4.3,0,0,0,1.72,1.08,6.85,6.85,0,0,0,2.37.43,31.28,31.28,0,0,0,4,.11,31.28,31.28,0,0,0,4-.11,6.63,6.63,0,0,0,2.37-.43,4.53,4.53,0,0,0,2.8-2.8,6.85,6.85,0,0,0,.43-2.37c0-1.08.11-1.4.11-4a33,33,0,0,0-.11-4,6.81,6.81,0,0,0-.43-2.37,4.54,4.54,0,0,0-2.8-2.81,6.67,6.67,0,0,0-2.37-.43,31.28,31.28,0,0,0-4-.11m0,4.74a4.89,4.89,0,0,0-5,4.79v.17a5,5,0,1,0,5-5m0,8.19a3.17,3.17,0,0,1-3.23-3.11.24.24,0,0,1,0-.12,3.17,3.17,0,0,1,3.11-3.23h.12a3.17,3.17,0,0,1,3.23,3.11v.12a3.17,3.17,0,0,1-3.12,3.23H20.7m5.17-9.59a1.19,1.19,0,1,0,1.19,1.18,1.2,1.2,0,0,0-1.19-1.18"/></g></g></svg>