<svg id="圖層_1" data-name="圖層 1" xmlns="http://www.w3.org/2000/svg" viewBox="0 0 40 40"><defs><style>.cls-1{fill:#ebebeb;}.cls-2{fill:none;}.cls-3{fill:#838383;}</style></defs><g id="Group_83" data-name="Group 83"><path id="Path_283" data-name="Path 283" class="cls-1" d="M20,0A20,20,0,1,1,0,20,20,20,0,0,1,20,0Z"/><g id="Attachment"><rect id="Rectangle_314" data-name="Rectangle 314" class="cls-2" x="10" y="10" width="20" height="20"/><path id="Path_125" data-name="Path 125" class="cls-3" d="M17,30.06a6.22,6.22,0,0,1-4.6-2,6.35,6.35,0,0,1-2.29-4.93,6.5,6.5,0,0,1,.49-2.46,5.74,5.74,0,0,1,1.15-2L15,15.45a4,4,0,0,1,3-1.15,4.47,4.47,0,0,1,3.12,1.31,4.19,4.19,0,0,1,1.31,3.29,3.92,3.92,0,0,1-1.15,3l-1.8,1.64a1.27,1.27,0,0,1-.82.33,1.75,1.75,0,0,1-1-.33,2.43,2.43,0,0,1-.33-1,2.47,2.47,0,0,1,.33-1l1.81-1.8a1,1,0,0,0,.49-1,2,2,0,0,0-.66-1.47,1.89,1.89,0,0,0-1.15-.33,2.35,2.35,0,0,0-1.15.33l-3.44,3.28a4.47,4.47,0,0,0-.82,2.62A4.76,4.76,0,0,0,14,26.28a3.43,3.43,0,0,0,1.64,1,2.88,2.88,0,0,0,1.64.16,11.79,11.79,0,0,0,1.31-.33,3.47,3.47,0,0,0,1-.65l6.57-6.57a3.63,3.63,0,0,0,1.15-2.79A4.35,4.35,0,0,0,25.82,14a7.4,7.4,0,0,0-2-1H22.37a3.45,3.45,0,0,0-1.15.49,2.07,2.07,0,0,1-1,.16,1.08,1.08,0,0,1-.82-.65c-.17-.17-.17-.5-.17-1a2.91,2.91,0,0,1,.66-.82,6.47,6.47,0,0,1,3.28-.82A6.1,6.1,0,0,1,27.46,12a6.94,6.94,0,0,1,2.3,4.93A6.46,6.46,0,0,1,28,21.69l-6.56,6.56A6.06,6.06,0,0,1,17,30.06Z"/></g></g></svg>