<svg id="參考線" xmlns="http://www.w3.org/2000/svg" viewBox="0 0 145.36 121.1"><defs><style>.cls-1{fill:#494949;}</style></defs><path class="cls-1" d="M63.34,96v.75h.75A.75.75,0,0,1,63.34,96Z"/><path class="cls-1" d="M59.57,96.74h.75V96A.76.76,0,0,1,59.57,96.74Z"/><path class="cls-1" d="M74,96.25a.94.94,0,0,0-.65-.37,1.29,1.29,0,0,0-.34,0,1.76,1.76,0,0,0-.85.34,2.16,2.16,0,0,1-.48.24,5.18,5.18,0,0,1-.56.17,3.41,3.41,0,0,1-.64.1l-.17,0h-7V34.32h0A14.11,14.11,0,0,0,50,21V13.91a.74.74,0,0,1,.74-.74H63.1a.75.75,0,0,0,.74-.71h0V10.91a.75.75,0,0,0-.75-.74H50.78A.74.74,0,0,1,50,9.43V.75h0A.75.75,0,0,0,49.32,0H47.78A.74.74,0,0,0,47,.75h0V9.44a.75.75,0,0,1-.75.73H34a.73.73,0,0,0-.7.7h0v1.54a.75.75,0,0,0,.71.74H46.29a.75.75,0,0,1,.75.72v7.23a14.11,14.11,0,0,0-11.92,13.2h0V96a.75.75,0,0,1-.74.72H25.07a.74.74,0,0,0-.74.71h0V99a.75.75,0,0,0,.74.75H73.54a.75.75,0,0,0,.74-.71h0V97.88A2.59,2.59,0,0,0,74,96.25ZM59.6,44.61a.74.74,0,0,1,.72.72V56.76h0V56a.75.75,0,0,1-.73.74H38.8a.74.74,0,0,1-.72-.71V45.31a.74.74,0,0,1,.72-.7ZM38.08,71.9V60.47a.74.74,0,0,1,.71-.71H59.6a.74.74,0,0,1,.72.71V71.9Zm11.12-48A11.13,11.13,0,0,1,60.32,35.06v6.55h0v-.74a.75.75,0,0,1-.73.74H38.79a.73.73,0,0,1-.71-.69V35.06A11.13,11.13,0,0,1,49.2,23.94ZM38.08,96.74h.74a.75.75,0,0,1-.74-.71V75.61a.74.74,0,0,1,.72-.71H59.6a.74.74,0,0,1,.72.71V96.74Zm-13,1.49h0v0h0Z"/><path class="cls-1" d="M8.56,25.83h0a.75.75,0,0,0-.71-.74H6.31a.74.74,0,0,0-.75.74h0V71.91A4.37,4.37,0,0,1,4.08,75L.27,78.27h0a.74.74,0,0,0-.09,1l1,1.18h0a.75.75,0,0,0,1,.07h0l3.86-3.29a7.42,7.42,0,0,0,2.5-5.43Z"/><path class="cls-1" d="M13.52,99a.75.75,0,0,0,.72.74h1.54a.76.76,0,0,0,.75-.75h0V20.91a.73.73,0,0,1,.7-.72h10a.7.7,0,0,0,.74-.7h0v-.84h0v-.13a3,3,0,0,0-.26-1.81.94.94,0,0,0-.65-.37,1.28,1.28,0,0,0-.34,0,1.69,1.69,0,0,0-.84.34,2,2,0,0,1-.49.23,3.92,3.92,0,0,1-.55.18,3.55,3.55,0,0,1-.64.1l-.18,0H17.26a.74.74,0,0,1-.73-.73V1h0a.73.73,0,0,0-.71-.73H14.27a.74.74,0,0,0-.75.74s0,0,0,0v15.4a.76.76,0,0,1-.74.73H2.85v0a.69.69,0,0,0-.74.69h0v1.54a.71.71,0,0,0,.75.73v0h10a.74.74,0,0,1,.71.72V99ZM27.24,18.72v0h0v0Zm-24.39,0v-.05h0v.05Z"/><path class="cls-1" d="M29.89,64.82l-3.77-3.2A4.35,4.35,0,0,1,24.6,58.4V25.71h0a.74.74,0,0,0-.71-.74H22.35a.75.75,0,0,0-.75.74h0v32.6a7.47,7.47,0,0,0,2.53,5.56L28,67.11h0a.75.75,0,0,0,1-.07h0l1-1.19a.75.75,0,0,0-.08-1h0Zm-1,1.15Z"/><path class="cls-1" d="M145.35,17.22V14.09A18.82,18.82,0,0,0,144.9,9a9.71,9.71,0,0,0-4.6-6.23,10.87,10.87,0,0,0-4.78-1.26H91v0A9.54,9.54,0,0,0,84.53,4.3a12.94,12.94,0,0,0-3.3,9.5v2.9C81,40,80.94,63.18,81,84.81V88a19.14,19.14,0,0,0,.45,5A9.72,9.72,0,0,0,86,99.22a10.89,10.89,0,0,0,4.44,1.23v0H135a9.59,9.59,0,0,0,6.83-2.75c2.2-2.22,3.37-5.61,3.3-9.51V85.33C145.38,62,145.39,38.78,145.35,17.22ZM142.1,85.31v2.94a10.2,10.2,0,0,1-2.43,7.37,6.76,6.76,0,0,1-5,1.87H91a7.94,7.94,0,0,1-3.55-.9,6.73,6.73,0,0,1-3.14-4.36A16.59,16.59,0,0,1,84,88v-.38h0V84.81c0-21.62,0-44.83.25-68.09V13.78a10.2,10.2,0,0,1,2.43-7.37A6.6,6.6,0,0,1,91.5,4.54h43.86a8.06,8.06,0,0,1,3.5.9A6.77,6.77,0,0,1,142,9.8a16.23,16.23,0,0,1,.34,4.27v.37h0v2.77C142.39,38.78,142.38,61.94,142.1,85.31Z"/><path class="cls-1" d="M136.5,81.58h0c-.06,0-1.62-.82-3.24-1.52a45.81,45.81,0,0,1-4.21-2,24.8,24.8,0,0,1-2.38-1.7l8.59-9.39h0l0,0a.75.75,0,0,0-.06-1h0l0,0h0l-1.15-1a.75.75,0,0,0-1,.05h0l-8.67,9.46a20,20,0,0,1-5-8.34,17.86,17.86,0,0,1-1-5V58.36h3.21a9.67,9.67,0,0,0,2.48-.41A9.44,9.44,0,0,0,126.3,57a10.83,10.83,0,0,0,5.29-7.37,11.2,11.2,0,0,0-5.33-11.61A16.08,16.08,0,0,0,119,36.53c-1.93-.05-3.88,0-5.77,0-1.46,0-2.91,0-4.37,0H108a36,36,0,0,0-5.17.16h-.08v0h0v.05a12.5,12.5,0,0,0-6.1,2.35,11,11,0,0,0-4.06,9.39A10.73,10.73,0,0,0,98,57a11,11,0,0,0,2.88,1h0l-.67-.16c.42.12.51.37.42.66a21.8,21.8,0,0,1-3,4.72,29.35,29.35,0,0,1-6.49,5.18l-1.34.88h0a.73.73,0,0,0-.21,1h0l0,0h0l.83,1.26a.75.75,0,0,0,1,.21h0q.66-.45,1.32-.87a32.11,32.11,0,0,0,7.13-5.74,24,24,0,0,0,2.41-3.41v4.76c0,1.17,0,2.34,0,3.52,0,2.42,0,4.93,0,7.4A15,15,0,0,0,105.14,86a10.45,10.45,0,0,0,2.1,2.1,9.75,9.75,0,0,0,6.31,1.65h5.72a.74.74,0,0,0,.74-.71h0V87.54a.75.75,0,0,0-.74-.75h-5.2c-2,0-3.59,0-5-1.06a7.57,7.57,0,0,1-1.49-1.5,12,12,0,0,1-2.23-6.86c-.08-2.41-.06-4.88,0-7.27,0-1.19,0-2.37,0-3.55v-7.4a.74.74,0,0,1,.73-.74h.32l7.81,0h.53a.75.75,0,0,1,.71.71V61a20.38,20.38,0,0,0,1.16,5.94,22.49,22.49,0,0,0,6.51,10.31,36.05,36.05,0,0,0,4.43,3.34,44.06,44.06,0,0,0,4.59,2.23c1.52.67,3.06,1.44,3.08,1.45h0l0,0a.73.73,0,0,0,1-.34h0l.65-1.4A.73.73,0,0,0,136.5,81.58Zm-22.37-26.2-7.8,0c-2.3,0-4.88,0-6.93-1a7.73,7.73,0,0,1-3.9-6.15,8,8,0,0,1,2.9-6.79,9.73,9.73,0,0,1,4.76-1.77,24.81,24.81,0,0,1,3-.15l1.74,0h.93c1.48,0,3,0,4.44,0,1.86,0,3.78,0,5.65,0a13.55,13.55,0,0,1,5.92,1.16,8.22,8.22,0,0,1,3.8,8.42,8,8,0,0,1-3.81,5.31,8,8,0,0,1-3.23.93Q117.87,55.35,114.13,55.38Z"/><path class="cls-1" d="M114.68,26.48v.75h.74A.74.74,0,0,1,114.68,26.48Z"/><path class="cls-1" d="M138.66,26.75a1,1,0,0,0-.65-.38,1.93,1.93,0,0,0-.34,0,1.67,1.67,0,0,0-.85.34,2.65,2.65,0,0,1-.48.23c-.19.07-.36.13-.55.18a4.63,4.63,0,0,1-.65.1H114.66V19.64a.75.75,0,0,1,.75-.74h20.83a.74.74,0,0,0,.74-.71h0V16.65a.76.76,0,0,0-.75-.75H115.41a.74.74,0,0,1-.75-.73V9.55h0a.74.74,0,0,0-.71-.74h-1.54a.76.76,0,0,0-.75.75h0v5.62a.74.74,0,0,1-.74.73H90.09a.75.75,0,0,0-.74.72h0v1.54a.74.74,0,0,0,.75.74h20.83a.74.74,0,0,1,.74.73v7a.73.73,0,0,1-.72.65H88.14a.75.75,0,0,0-.74.71h0v1.55a.74.74,0,0,0,.74.74h50.05a.75.75,0,0,0,.74-.71h0V28A1.83,1.83,0,0,0,138.66,26.75Z"/><path class="cls-1" d="M27.23,116.61H14a.29.29,0,0,0-.21.08.26.26,0,0,0-.09.21v.33a.26.26,0,0,0,.09.21.29.29,0,0,0,.21.08H27.23a.32.32,0,0,0,.21-.08.28.28,0,0,0,.07-.21v-.33a.28.28,0,0,0-.07-.21A.32.32,0,0,0,27.23,116.61Z"/><path class="cls-1" d="M136.18,116.61H123a.33.33,0,0,0-.22.08.29.29,0,0,0-.08.21v.33a.29.29,0,0,0,.08.21.33.33,0,0,0,.22.08h13.22a.29.29,0,0,0,.21-.08.25.25,0,0,0,.08-.21v-.33a.25.25,0,0,0-.08-.21A.29.29,0,0,0,136.18,116.61Z"/><path class="cls-1" d="M43.59,116.08H40.73a.28.28,0,0,0-.2.08.3.3,0,0,0-.08.23v.29a.27.27,0,0,0,.08.22.25.25,0,0,0,.2.09h2.12v.6a2.86,2.86,0,0,1-.33,1.45,2.08,2.08,0,0,1-.91.85,3.07,3.07,0,0,1-1.31.27,2.58,2.58,0,0,1-1.77-.6,2.66,2.66,0,0,1-.73-2c0-.78,0-1.55,0-2.32a2.66,2.66,0,0,1,.72-2,2.59,2.59,0,0,1,1.78-.6,2.92,2.92,0,0,1,1.22.23,2.09,2.09,0,0,1,.77.58,2.25,2.25,0,0,1,.41.71.67.67,0,0,0,.11.2.22.22,0,0,0,.17.06h.52a.25.25,0,0,0,.21-.08.25.25,0,0,0,.07-.19,1.78,1.78,0,0,0-.22-.71,2.92,2.92,0,0,0-.62-.81,3.19,3.19,0,0,0-1.08-.66,4.11,4.11,0,0,0-1.56-.26,4,4,0,0,0-1.91.42,2.89,2.89,0,0,0-1.19,1.21,4.1,4.1,0,0,0-.46,1.81c0,.39,0,.8,0,1.23s0,.84,0,1.23a4.32,4.32,0,0,0,.45,1.81,2.86,2.86,0,0,0,1.19,1.22,4,4,0,0,0,1.92.43,3.92,3.92,0,0,0,1.94-.45,2.92,2.92,0,0,0,1.23-1.23,3.86,3.86,0,0,0,.42-1.83v-1.2a.28.28,0,0,0-.3-.31Z"/><path class="cls-1" d="M54.94,112.14a.44.44,0,0,0-.13-.2.38.38,0,0,0-.26-.07h-.66a.39.39,0,0,0-.25.07.38.38,0,0,0-.14.2l-3.25,8.42a.4.4,0,0,0,0,.15.27.27,0,0,0,.26.26h.46a.27.27,0,0,0,.21-.08.38.38,0,0,0,.09-.13l.77-2h4.43l.76,2a.76.76,0,0,0,.1.13.29.29,0,0,0,.22.08H58a.26.26,0,0,0,.19-.08.22.22,0,0,0,.08-.18.77.77,0,0,0,0-.15Zm-2.6,5.71L54.23,113l1.87,4.88Z"/><path class="cls-1" d="M69.7,117.05a2.39,2.39,0,0,0,1.91-2.51,2.41,2.41,0,0,0-.83-2,3.46,3.46,0,0,0-2.24-.67H65.43a.31.31,0,0,0-.21.07.29.29,0,0,0-.09.22v8.52a.26.26,0,0,0,.09.21.32.32,0,0,0,.21.08h.45a.31.31,0,0,0,.22-.08.28.28,0,0,0,.07-.21v-3.47h2.49l2,3.4a1.44,1.44,0,0,0,.18.25.42.42,0,0,0,.31.11h.39a.27.27,0,0,0,.26-.26.28.28,0,0,0,0-.15Zm-1.22-.78H66.17v-3.48h2.31a2.41,2.41,0,0,1,1.57.44,1.62,1.62,0,0,1,.52,1.31,1.58,1.58,0,0,1-.52,1.3A2.41,2.41,0,0,1,68.48,116.27Z"/><path class="cls-1" d="M85.47,113.46a2.38,2.38,0,0,0-1.15-1.19,4.76,4.76,0,0,0-2.15-.4H79.3a.31.31,0,0,0-.21.07.29.29,0,0,0-.08.22v8.52a.25.25,0,0,0,.08.21.32.32,0,0,0,.21.08h2.93a4.79,4.79,0,0,0,2.11-.39,2.32,2.32,0,0,0,1.13-1.16,5.06,5.06,0,0,0,.37-2c0-.39,0-.73,0-1s0-.64,0-1A4.56,4.56,0,0,0,85.47,113.46Zm-.65,3.24c0,.19,0,.42,0,.68a3.87,3.87,0,0,1-.27,1.54,1.62,1.62,0,0,1-.83.84,3.62,3.62,0,0,1-1.53.27H80.05V112.8h2a2.77,2.77,0,0,1,2.07.65,2.87,2.87,0,0,1,.63,2c0,.26,0,.49,0,.68Z"/><path class="cls-1" d="M99,120H94.37v-3.21h4.2a.29.29,0,0,0,.22-.08.29.29,0,0,0,.08-.21v-.34a.33.33,0,0,0-.08-.22.29.29,0,0,0-.22-.07h-4.2v-3.1h4.49a.27.27,0,0,0,.22-.08.28.28,0,0,0,.08-.2v-.36a.33.33,0,0,0-.08-.22.31.31,0,0,0-.22-.07H93.64a.31.31,0,0,0-.21.07.29.29,0,0,0-.09.22v8.52a.26.26,0,0,0,.09.21.32.32,0,0,0,.21.08H99a.29.29,0,0,0,.22-.08.29.29,0,0,0,.08-.21v-.35a.28.28,0,0,0-.3-.3Z"/><path class="cls-1" d="M112.9,111.87h-.42a.31.31,0,0,0-.22.07.33.33,0,0,0-.08.22V119l-4.56-7-.09-.09a.25.25,0,0,0-.21-.07h-.43a.28.28,0,0,0-.21.07.29.29,0,0,0-.09.22v8.52a.26.26,0,0,0,.09.21.29.29,0,0,0,.21.08h.43a.29.29,0,0,0,.22-.08.29.29,0,0,0,.08-.21v-6.83l4.55,7,.09.09a.26.26,0,0,0,.21.08h.44a.26.26,0,0,0,.21-.09.27.27,0,0,0,.09-.21v-8.51a.29.29,0,0,0-.09-.22A.31.31,0,0,0,112.9,111.87Z"/></svg>